<svg width="132" height="17" viewBox="0 0 132 17" fill="none" xmlns="http://www.w3.org/2000/svg">
<g filter="url(#filter0_d_1_276)">
<path d="M60.9852 11.06H69.7075L65.0953 3.70911L56.6305 16.999H52.779L63.0747 1.03613C63.3025 0.712423 63.6054 0.449008 63.9574 0.268544C64.3094 0.0880799 64.6999 -0.00403103 65.0953 0.000135302C65.8959 0.000135302 66.6427 0.376132 67.0759 1.00813L77.4125 17H73.56L71.7431 14.03H62.9109L60.9852 11.06Z" fill="#36536B"/>
<path d="M101.002 14.03V0.160136H97.7333V15.386C97.7333 15.803 97.8961 16.206 98.2075 16.515C98.52 16.824 98.9403 16.999 99.4015 16.999H114.309L116.236 14.029L101.002 14.03Z" fill="#36536B"/>
<path d="M46.9178 11.543C50.0925 11.543 52.6701 9.00306 52.6701 5.85909C52.6701 2.71411 50.0925 0.161134 46.9178 0.161134H32.6169V17H35.8844V3.13111H46.7012C47.0601 3.12966 47.4158 3.19915 47.7479 3.33558C48.08 3.47202 48.3819 3.67272 48.6365 3.92621C48.891 4.1797 49.0932 4.48099 49.2313 4.81283C49.3695 5.14467 49.4409 5.50055 49.4416 5.86009C49.4408 6.2195 49.3692 6.57522 49.231 6.90689C49.0928 7.23856 48.8906 7.53967 48.6361 7.79297C48.3815 8.04627 48.0796 8.24679 47.7476 8.38306C47.4156 8.51932 47.06 8.58865 46.7012 8.58707L37.4857 8.57407L47.2443 17H51.9923L45.4263 11.544H46.9188L46.9178 11.543Z" fill="#36536B"/>
<path d="M12.4997 17C7.8076 17 4 13.237 4 8.58707C4 3.9371 7.8076 0.161134 12.4997 0.161134H22.3791C27.0722 0.161134 30.8778 3.9371 30.8778 8.58707C30.8778 13.237 27.0712 17 22.3791 17H12.4997Z" fill="#36536B"/>
<path d="M84.2351 17C79.543 17 75.7304 13.237 75.7304 8.58707C75.7304 3.9371 79.543 0.161134 84.2361 0.161134H95.9703L94.0566 3.13111H84.4527C81.4148 3.13111 78.946 5.57709 78.946 8.58707C78.946 11.597 81.4148 14.03 84.4527 14.03H96.2409L94.3141 17H84.2351Z" fill="#36536B"/>
<path d="M124.212 14.03C121.703 14.03 119.573 12.364 118.922 10.0651H132.894L134.82 7.09508H118.922C119.573 4.8111 121.703 3.13111 124.213 3.13111H133.803L135.742 0.161134H123.995C119.301 0.161134 115.489 3.9371 115.489 8.58707C115.489 13.237 119.301 16.999 123.995 16.999H134.074L136 14.029L124.212 14.03Z" fill="#36536B"/>
<path d="M12.5 0.661133H22.3789C26.7998 0.661133 30.3778 4.21709 30.3779 8.58691C30.3779 12.9558 26.7999 16.5 22.3789 16.5H12.5C8.07896 16.5 4.5 12.9557 4.5 8.58691C4.50008 4.21721 8.08002 0.661133 12.5 0.661133ZM84.2363 0.661133H95.0537L93.7842 2.63086H84.4531C81.1435 2.63086 78.4464 5.2965 78.4463 8.58691C78.4463 11.8789 81.145 14.5303 84.4531 14.5303H95.3203L94.042 16.5H84.2354C79.8139 16.5 76.2305 12.9553 76.2305 8.58691C76.2306 4.21763 79.8149 0.661133 84.2363 0.661133ZM100.502 0.660156V14.5303H101.002L115.314 14.5293L114.037 16.499H99.4014C99.0702 16.499 98.7762 16.3744 98.5586 16.1592C98.3427 15.9446 98.2334 15.6695 98.2334 15.3857V0.660156H100.502ZM123.995 0.661133H134.819L133.532 2.63086H124.213C121.477 2.63086 119.152 4.46211 118.44 6.95801L118.26 7.59473H133.9L132.622 9.56543H118.261L118.44 10.2012C119.152 12.714 121.478 14.5303 124.212 14.5303L135.079 14.5293L133.802 16.499H123.995C119.572 16.499 115.989 12.9552 115.989 8.58691C115.989 4.21761 119.573 0.661172 123.995 0.661133ZM65.0898 0.5H65.0957C65.7427 0.500138 66.3295 0.803979 66.6631 1.29004L76.4932 16.5H73.8398L72.1699 13.7695L72.0234 13.5303H63.1826L61.9043 11.5596H70.6113L70.1309 10.7939L65.5186 3.44336L65.0986 2.77344L64.6738 3.44043L60.1396 10.5596H60.0654L60.1025 10.6172L56.3564 16.499H53.6963L63.4883 1.31738C63.669 1.06294 63.9082 0.856111 64.1855 0.713867C64.4653 0.570421 64.7756 0.496714 65.0898 0.5ZM46.918 0.661133C49.8209 0.661218 52.1699 2.99508 52.1699 5.85938C52.1698 8.721 49.8224 11.0429 46.918 11.043H45.7109L45.7119 11.0439H44.042L45.1064 11.9287L50.6084 16.5H47.4307L38.832 9.0752L46.7002 9.08691V9.08594C47.1245 9.08764 47.5449 9.00681 47.9375 8.8457C48.3303 8.68449 48.6872 8.447 48.9883 8.14746C49.2893 7.84788 49.5289 7.49175 49.6924 7.09961C49.8558 6.70736 49.9405 6.28632 49.9414 5.86133V5.85938C49.9406 5.43439 49.8566 5.01342 49.6934 4.62109C49.53 4.22868 49.2903 3.87212 48.9893 3.57227C48.6881 3.27238 48.3305 3.0345 47.9375 2.87305C47.5452 2.71195 47.1252 2.62942 46.7012 2.63086H35.3848V16.5H33.1172V0.661133H46.918Z" stroke="#36536B"/>
</g>
<defs>

</defs>
</svg>
